<?xml version="1.0" encoding="UTF-8"?>
<svg id="_레이어_2" data-name="레이어 2" xmlns="http://www.w3.org/2000/svg" viewBox="0 0 130 130">
  <defs>
    <style>
      .cls-1 {
        fill: #fff;
      }

      .cls-2 {
        fill: #a8a8a8;
      }
    </style>
  </defs>
  <g id="assets">
    <g>
      <circle class="cls-2" cx="65" cy="65" r="65"/>
      <path class="cls-1" d="m20.62,82.9v-25.91l-.23-.23h-3.76l-.38-.38v-9.27l.38-.38h18.51l.38.38v9.27l-.38.38h-3.76l-.23.23v25.91l-.38.38h-9.77l-.38-.38Zm29.36-36.18h9.77l.38.38v25.91c0,6.82-4.87,10.77-11.46,10.77s-11.38-4.02-11.38-10.77v-25.91l.38-.38h9.77l.38.38v26.21c0,.46.38.92.88.92s.88-.42.88-.92v-26.21l.38-.38Zm45.68.38v35.8l-.38.38h-9.16l-.31-.15-13.18-18.13h-.31v17.9l-.38.38h-9.66l-.38-.38v-35.8l.38-.38h9.77l.31.15,12.57,17.32h.31v-17.09l.38-.38h9.66l.38.38Zm1.76,35.8v-35.8l.38-.38h15.56l.38.38v8.81l-.38.38h-5.17l-.23.23v3.33l.23.23h5.17l.38.38v8.81l-.38.38h-5.17l-.23.23v3.56l.23.23h5.17l.38.38v8.81l-.38.38h-15.56l-.38-.38Z"/>
    </g>
  </g>
</svg>