<?xml version="1.0" encoding="UTF-8"?>
<svg id="_레이어_2" data-name="레이어 2" xmlns="http://www.w3.org/2000/svg" viewBox="0 0 128 128">
  <defs>
    <style>
      .cls-1 {
        fill: none;
      }

      .cls-2 {
        fill: #a8a8a8;
      }
    </style>
  </defs>
  <g id="assets">
    <g>
      <rect class="cls-1" width="128" height="128"/>
      <path class="cls-2" d="m12.21,84.89v-30.23l-.27-.27h-4.38l-.45-.45v-10.82l.45-.45h21.6l.45.45v10.82l-.45.45h-4.38l-.27.27v30.23l-.45.45h-11.4l-.45-.45Zm34.26-42.22h11.4l.45.45v30.23c0,7.96-5.68,12.57-13.37,12.57s-13.28-4.7-13.28-12.57v-30.23l.45-.45h11.4l.45.45v30.59c0,.54.45,1.07,1.03,1.07s1.03-.49,1.03-1.07v-30.59l.45-.45Zm53.31.45v41.77l-.45.45h-10.69l-.36-.18-15.39-21.15h-.36v20.89l-.45.45h-11.27l-.45-.45v-41.77l.45-.45h11.4l.36.18,14.67,20.22h.36v-19.95l.45-.45h11.27l.45.45Zm2.06,41.77v-41.77l.45-.45h18.16l.45.45v10.29l-.45.45h-6.04l-.27.27v3.89l.27.27h6.04l.45.45v10.29l-.45.45h-6.04l-.27.27v4.16l.27.27h6.04l.45.45v10.29l-.45.45h-18.16l-.45-.45Z"/>
    </g>
  </g>
</svg>